# xmcd
#
# Track frame offsets:
#	150
#	13897
#	27004
#	44748
#	61374
#	76427
#	91873
#	106832
#	117008
#	141572
#	159707
#	176806
#	190647
#	206813
#	222377
#	242864
#
# Disc length: 3440 seconds
# Revision: 14
# Processed by: cddbd v1.5.2PL0 Copyright (c) Steve Scherf et al.
# Submitted via: dBpowerAMP V12.0
#
DISCID=e70d6e10
DTITLE=Jimmy Buffett - License to Chill
DYEAR=2004
DGENRE=Country
TTITLE0=Hey Good Lookin'
TTITLE1=Boats to Build
TTITLE2=License to Chill
TTITLE3=Coast of Carolina
TTITLE4=Piece of Work
TTITLE5=Anything Anytime Anywhere
TTITLE6=Trip Around the Sun
TTITLE7=Simply Complicated
TTITLE8=Coastal Confessions
TTITLE9=Sea of Heartbreak
TTITLE10=Conky Tonkin'
TTITLE11=Playin' the Loser Again
TTITLE12=Window on the World
TTITLE13=Someone I Used to Love
TTITLE14=Scarlet Begonias
TTITLE15=Back to the Island
EXTD=
EXTT0=
EXTT1=
EXTT2=
EXTT3=
EXTT4=
EXTT5=
EXTT6=
EXTT7=
EXTT8=
EXTT9=
EXTT10=
EXTT11=
EXTT12=
EXTT13=
EXTT14=
EXTT15=
PLAYORDER=
